<svg xmlns="http://www.w3.org/2000/svg" viewBox="0 0 850 240" width="850" height="240">
  <defs>
    <linearGradient id="nWaveGrad" gradientUnits="userSpaceOnUse" x1="0" y1="0" x2="850" y2="0">
      <stop offset="0%" stop-color="#00BCD4" />
      <stop offset="30%" stop-color="#2979FF" />
      <stop offset="44%" stop-color="#2979FF" />
      <stop offset="46%" stop-color="#D500F9" />
      <stop offset="49%" stop-color="#FF1744" />
      <stop offset="51.5%" stop-color="#FFEA00" />
      <stop offset="54%" stop-color="#FF1744" />
      <stop offset="56%" stop-color="#D500F9" />
      <stop offset="58%" stop-color="#2979FF" />
      <stop offset="65%" stop-color="#00BCD4" />
      <stop offset="100%" stop-color="#00BCD4" />
    </linearGradient>

    <filter id="blurDark" x="-20%" y="-30%" width="160%" height="220%" color-interpolation-filters="sRGB">
      <feGaussianBlur stdDeviation="1.35" />
    </filter>

    <filter id="blurWaveCyan" x="-25%" y="-35%" width="170%" height="240%" color-interpolation-filters="sRGB">
      <feGaussianBlur stdDeviation="4.0" />
    </filter>
    <filter id="blurTextCyan" x="-25%" y="-35%" width="170%" height="240%" color-interpolation-filters="sRGB">
      <feGaussianBlur stdDeviation="4.3" />
    </filter>
    <filter id="blurYearCyan" x="-25%" y="-35%" width="170%" height="240%" color-interpolation-filters="sRGB">
      <feGaussianBlur stdDeviation="2.7" />
    </filter>
  </defs>

  <g transform="translate(0 2.0)" opacity="0.58" filter="url(#blurDark)">
    <path d="M -20,125 C 60,125 120,75 220,75 C 280,75 330,165 400,165 L 400,75 L 480,165 L 480,75 C 495,75 520,125 550,125 L 870,125"
          fill="none" stroke="#031018" stroke-width="15.5" stroke-linecap="round" stroke-linejoin="miter" stroke-miterlimit="10" />
    <g font-family="'Inter', -apple-system, sans-serif" font-size="130" font-weight="900" text-anchor="middle" fill="#031018">
      <text x="220" y="165">S</text>
      <text x="330" y="165">C</text>
      <text x="550" y="165">F</text>
    </g>
    <text x="615" y="115" font-family="'JetBrains Mono', monospace" font-size="40" font-weight="800" letter-spacing="1" fill="#031018" text-anchor="start">2026</text>
  </g>

  <g transform="translate(0 6.4)" opacity="0.29" filter="url(#blurWaveCyan)">
    <path d="M -20,125 C 60,125 120,75 220,75 C 280,75 330,165 400,165 L 400,75 L 480,165 L 480,75 C 495,75 520,125 550,125 L 870,125"
          fill="none" stroke="#12D7F3" stroke-width="15.5" stroke-linecap="round" stroke-linejoin="miter" stroke-miterlimit="10" />
  </g>

  <g transform="translate(0 7.6)" opacity="0.18" filter="url(#blurTextCyan)">
    <g font-family="'Inter', -apple-system, sans-serif" font-size="130" font-weight="900" text-anchor="middle" fill="#12D7F3">
      <text x="220" y="165">S</text>
      <text x="330" y="165">C</text>
      <text x="550" y="165">F</text>
    </g>
  </g>

  <g transform="translate(0 5.8)" opacity="0.16" filter="url(#blurYearCyan)">
    <text x="615" y="115" font-family="'JetBrains Mono', monospace" font-size="40" font-weight="800" letter-spacing="1" fill="#12D7F3" text-anchor="start">2026</text>
  </g>

  <path d="M -20,125 C 60,125 120,75 220,75 C 280,75 330,165 400,165 L 400,75 L 480,165 L 480,75 C 495,75 520,125 550,125 L 870,125"
        fill="none" stroke="url(#nWaveGrad)" stroke-width="14" stroke-linecap="round" stroke-linejoin="miter" stroke-miterlimit="10" />

  <g font-family="'Inter', -apple-system, sans-serif" font-size="130" font-weight="900" text-anchor="middle" fill="#FFFFFF">
    <text x="220" y="165">S</text>
    <text x="330" y="165">C</text>
    <text x="550" y="165">F</text>
  </g>

  <text x="615" y="115" font-family="'JetBrains Mono', monospace" font-size="40" font-weight="800" letter-spacing="1" fill="#00BCD4" text-anchor="start">2026</text>
</svg>